<svg width="169" height="50" viewBox="0 0 169 50" fill="none" xmlns="http://www.w3.org/2000/svg">
<mask id="mask0_806_9333" style="mask-type:alpha" maskUnits="userSpaceOnUse" x="0" y="1" width="40" height="48">
<path d="M6.12199 7.12117C13.7909 -0.547757 26.2247 -0.547757 33.8936 7.12117C41.5626 14.7901 40.6967 28.0897 33.0278 35.7587L20.0078 48.7786L6.98785 35.7587C-0.681084 28.0897 -1.54694 14.7901 6.12199 7.12117Z" fill="#E3E3E3"/>
</mask>
<g mask="url(#mask0_806_9333)">
<path d="M6.1215 7.1208C13.7904 -0.548123 26.2242 -0.548123 33.8932 7.1208C41.5621 14.7897 41.5621 27.2235 33.8932 34.8924L20.0073 48.7782L6.1215 34.8924C-1.54743 27.2235 -1.54743 14.7897 6.1215 7.1208Z" fill="#E3E3E3"/>
<rect x="20.0059" y="-6.76611" width="39.277" height="39.275" transform="rotate(45 20.0059 -6.76611)" fill="#FCE8C9"/>
<rect x="20.0098" y="-6.76221" width="29.4516" height="29.4563" transform="rotate(45 20.0098 -6.76221)" fill="#FDD89F"/>
<rect x="20.0073" y="-6.76501" width="19.6375" height="19.6375" transform="rotate(45 20.0073 -6.76501)" fill="#FBC572"/>
<mask id="mask1_806_9333" style="mask-type:alpha" maskUnits="userSpaceOnUse" x="-8" y="-7" width="56" height="56">
<rect x="20.0059" y="-6.76611" width="39.277" height="39.275" transform="rotate(45 20.0059 -6.76611)" fill="#FFD38F"/>
</mask>
<g mask="url(#mask1_806_9333)">
<rect width="19.6443" height="49.0938" transform="matrix(-1 0 0 1 39.6509 0.599121)" fill="#FDD89F"/>
</g>
<mask id="mask2_806_9333" style="mask-type:alpha" maskUnits="userSpaceOnUse" x="-1" y="-7" width="42" height="42">
<rect x="20.0098" y="-6.76208" width="29.4516" height="29.4563" transform="rotate(45 20.0098 -6.76208)" fill="#FDA92B"/>
</mask>
<g mask="url(#mask2_806_9333)">
<rect width="19.6443" height="49.0938" transform="matrix(-1 0 0 1 39.6509 0.599243)" fill="#FBC572"/>
</g>
<mask id="mask3_806_9333" style="mask-type:alpha" maskUnits="userSpaceOnUse" x="6" y="-7" width="28" height="29">
<rect x="20.0078" y="-6.76501" width="19.6375" height="19.6375" transform="rotate(45 20.0078 -6.76501)" fill="#FDA92B"/>
</mask>
<g mask="url(#mask3_806_9333)">
<rect width="19.6443" height="49.0938" transform="matrix(-1 0 0 1 39.6504 0.599121)" fill="#FDA92B"/>
</g>
</g>
<path d="M58.601 39.2941H53.4766V12.6789H58.601V39.2941Z" fill="#21432F"/>
<path d="M81.5516 39.2941H76.7847V34.3683L76.5067 34.2888V27.4563C76.5067 25.9733 76.1491 24.9537 75.4341 24.3975C74.7191 23.8414 73.4876 23.5633 71.7398 23.5633C70.0713 23.5633 68.8399 23.8414 68.0454 24.3975C67.2774 24.9272 66.8934 25.8408 66.8934 27.1385V27.3371H61.769V27.1782C61.769 25.6157 62.1795 24.2254 63.0004 23.0072C63.8479 21.789 65.0396 20.8356 66.5756 20.147C68.1381 19.432 69.9786 19.0745 72.0973 19.0745C74.2689 19.0745 76.0432 19.432 77.4203 20.147C78.8239 20.8621 79.8567 21.8419 80.5188 23.0866C81.2073 24.3313 81.5516 25.7879 81.5516 27.4563V39.2941ZM68.1249 39.6913C66.0327 39.6913 64.3775 39.2279 63.1593 38.301C61.9411 37.3741 61.332 36.0897 61.332 34.4477C61.332 33.4414 61.5836 32.5807 62.0868 31.8657C62.59 31.1506 63.3182 30.5813 64.2716 30.1575C65.225 29.7338 66.377 29.4557 67.7276 29.3233L76.9039 28.3699V31.3493L69.1577 32.2232C68.2573 32.3026 67.582 32.488 67.1317 32.7793C66.708 33.0441 66.4962 33.4944 66.4962 34.1299C66.4962 34.7655 66.7345 35.2422 67.2112 35.56C67.7144 35.8778 68.4956 36.0367 69.5549 36.0367C71.0115 36.0367 72.2562 35.8778 73.289 35.56C74.3218 35.2157 75.1163 34.6993 75.6724 34.0108C76.2286 33.2957 76.5067 32.3688 76.5067 31.2301H77.0628V34.5669H76.5067C76.03 36.1559 75.0633 37.4138 73.6068 38.3407C72.1767 39.2411 70.3494 39.6913 68.1249 39.6913ZM78.2942 17.0486H73.4082V11.9639H78.2942V17.0486ZM70.3494 17.0486H65.4633V11.9639H70.3494V17.0486Z" fill="#21432F"/>
<path d="M120.609 39.2941H115.485V28.7275C115.485 26.9266 115.114 25.6422 114.372 24.8742C113.631 24.0797 112.347 23.6825 110.519 23.6825C108.56 23.6825 107.209 24.1459 106.467 25.0728C105.726 25.9732 105.355 27.4033 105.355 29.363L104.6 29.4028L104.243 25.5892H105.236C105.421 24.4505 105.792 23.3912 106.348 22.4113C106.904 21.4315 107.712 20.637 108.771 20.0279C109.857 19.3923 111.248 19.0745 112.942 19.0745C114.664 19.0745 116.081 19.432 117.193 20.147C118.332 20.8356 119.179 21.789 119.735 23.0072C120.318 24.2254 120.609 25.6157 120.609 27.1782V39.2941ZM90.101 39.2941H84.9766V19.4717H89.7038V25.6687L90.101 25.8673V39.2941ZM105.355 39.2941H100.231V28.7275C100.231 26.9266 99.8599 25.6422 99.1184 24.8742C98.3769 24.0797 97.0925 23.6825 95.2652 23.6825C93.3054 23.6825 91.9548 24.1459 91.2133 25.0728C90.4718 25.9732 90.101 27.4033 90.101 29.363L89.3463 29.4028L89.0285 25.4701H89.9818C90.1672 24.3578 90.5247 23.325 91.0544 22.3716C91.6105 21.3917 92.405 20.5972 93.4378 19.9881C94.4972 19.379 95.8478 19.0745 97.4897 19.0745C99.2376 19.0745 100.654 19.432 101.74 20.147C102.852 20.8621 103.673 21.8419 104.203 23.0866C104.759 24.3048 105.037 25.6687 105.037 27.1782H105.355V39.2941Z" fill="#21432F"/>
<path d="M145.333 39.2941H140.249V28.7275C140.249 27.0061 139.838 25.7349 139.017 24.9139C138.196 24.093 136.806 23.6825 134.846 23.6825C132.834 23.6825 131.377 24.1592 130.477 25.1126C129.603 26.0395 129.166 27.4563 129.166 29.363L128.411 29.4028L128.093 25.5892H129.086C129.272 24.477 129.682 23.4309 130.318 22.451C130.953 21.4447 131.84 20.637 132.979 20.0279C134.118 19.3923 135.548 19.0745 137.269 19.0745C139.07 19.0745 140.567 19.4452 141.758 20.1868C142.976 20.9018 143.877 21.8684 144.46 23.0866C145.042 24.3048 145.333 25.6687 145.333 27.1782V39.2941ZM129.166 39.2941H124.041V19.4717H128.768V25.6687L129.166 25.8673V39.2941Z" fill="#21432F"/>
<path d="M168.177 39.2941H163.41V34.3683L163.132 34.2888V27.4563C163.132 25.9733 162.774 24.9537 162.059 24.3975C161.344 23.8414 160.113 23.5633 158.365 23.5633C156.696 23.5633 155.465 23.8414 154.67 24.3975C153.902 24.9272 153.518 25.8408 153.518 27.1385V27.3371H148.394V27.1782C148.394 25.6157 148.805 24.2254 149.626 23.0072C150.473 21.789 151.665 20.8356 153.201 20.147C154.763 19.432 156.604 19.0745 158.722 19.0745C160.894 19.0745 162.668 19.432 164.045 20.147C165.449 20.8621 166.482 21.8419 167.144 23.0866C167.832 24.3313 168.177 25.7879 168.177 27.4563V39.2941ZM154.75 39.6913C152.658 39.6913 151.003 39.2279 149.784 38.301C148.566 37.3741 147.957 36.0897 147.957 34.4477C147.957 33.4414 148.209 32.5807 148.712 31.8657C149.215 31.1506 149.943 30.5813 150.897 30.1575C151.85 29.7338 153.002 29.4557 154.353 29.3233L163.529 28.3699V31.3493L155.783 32.2232C154.882 32.3026 154.207 32.488 153.757 32.7793C153.333 33.0441 153.121 33.4944 153.121 34.1299C153.121 34.7655 153.36 35.2422 153.836 35.56C154.339 35.8778 155.121 36.0367 156.18 36.0367C157.637 36.0367 158.881 35.8778 159.914 35.56C160.947 35.2157 161.741 34.6993 162.298 34.0108C162.854 33.2957 163.132 32.3688 163.132 31.2301H163.688V34.5669H163.132C162.655 36.1559 161.688 37.4138 160.232 38.3407C158.802 39.2411 156.974 39.6913 154.75 39.6913Z" fill="#21432F"/>
</svg>
